<?xml version="1.0" encoding="UTF-8"?>
<svg width="44px" height="44px" viewBox="0 0 44 44" version="1.1" xmlns="http://www.w3.org/2000/svg" xmlns:xlink="http://www.w3.org/1999/xlink">
    <!-- Generator: Sketch 59 (86127) - https://sketch.com -->
    <style type="text/css"> .obj {fill:#4fc1df;} </style>
    <g stroke="none" stroke-width="1" fill="none" fill-rule="evenodd">
        <path class="obj" d="M21.7556098,12 C27.135122,12 31.5121951,16.3760976 31.5121951,21.7560976 C31.5121951,27.1356098 27.135122,31.5121951 21.7556098,31.5121951 C16.3765854,31.5121951 12,27.1356098 12,21.7560976 C12,16.3760976 16.3765854,12 21.7556098,12 Z M21.7556098,13.8536585 C17.3985366,13.8536585 13.8536585,17.3985366 13.8536585,21.7560976 C13.8536585,26.1131707 17.3985366,29.6585366 21.7556098,29.6585366 C26.1136585,29.6585366 29.6585366,26.1131707 29.6585366,21.7560976 C29.6585366,17.3985366 26.1136585,13.8536585 21.7556098,13.8536585 Z M21.7556585,15.8719024 C22.2678537,15.8719024 22.6824878,16.2860488 22.6824878,16.7982439 L22.6824878,16.7982439 L22.6824878,20.8289756 L26.7132195,20.8289756 C27.2254146,20.8289756 27.6400488,21.2440976 27.6400488,21.7558049 C27.6400488,22.2675122 27.2254146,22.6826341 26.7132195,22.6826341 L26.7132195,22.6826341 L22.6824878,22.6826341 L22.6824878,26.7133659 C22.6824878,27.225561 22.2678537,27.6406829 21.7556585,27.6406829 C21.2439512,27.6406829 20.8288293,27.225561 20.8288293,26.7133659 L20.8288293,26.7133659 L20.8288293,22.6826341 L16.7985854,22.6826341 C16.2863902,22.6826341 15.8712683,22.2675122 15.8712683,21.7558049 C15.8712683,21.2440976 16.2863902,20.8289756 16.7985854,20.8289756 L16.7985854,20.8289756 L20.8288293,20.8289756 L20.8288293,16.7982439 C20.8288293,16.2860488 21.2439512,15.8719024 21.7556585,15.8719024 Z" id="Combined-Shape" fill="#666666"></path>
    </g>
</svg>