<svg xmlns="http://www.w3.org/2000/svg" width="44" height="44" viewBox="0 0 44 44">
    <g fill="none" fill-rule="evenodd">
        <g fill="#666">
            <g>
                <path d="M28.76 15.907c.273 0 .536.113.726.313.188.199.287.467.271.742l-.846 15.376c-.028.53-.466.945-.998.945H16.086c-.53 0-.97-.415-.998-.945l-.846-15.376c-.015-.275.083-.543.272-.742.19-.2.452-.313.726-.313zm-1.058 2H16.297l.735 13.376h9.935l.735-13.376zM22 19.994c.553 0 1 .447 1 1v5.562c0 .553-.447 1-1 1-.553 0-1-.447-1-1v-5.562c0-.553.447-1 1-1zm-2.855 0c.553 0 1 .447 1 1v5.562c0 .553-.447 1-1 1-.553 0-1-.447-1-1v-5.562c0-.553.447-1 1-1zm5.71 0c.553 0 1 .447 1 1v5.562c0 .553-.447 1-1 1-.553 0-1-.447-1-1v-5.562c0-.553.447-1 1-1zm4.7-6.745c.553 0 1 .446 1 1 0 .553-.447 1-1 1h-15.11c-.553 0-1-.447-1-1 0-.554.447-1 1-1zm-4.228-2.532c.553 0 1 .447 1 1 0 .553-.447 1-1 1h-6.655c-.553 0-1-.447-1-1 0-.553.447-1 1-1z" transform="translate(-643 -704) translate(643 704)"/>
            </g>
        </g>
    </g>
</svg>
