<svg xmlns="http://www.w3.org/2000/svg" width="44" height="44" viewBox="0 0 44 44">
    <g fill="none" fill-rule="evenodd">
        <g fill="#666">
            <g>
                <g>
                    <path d="M27.75 22c.966 0 1.75.784 1.75 1.75l-.001.897h1.164c.967 0 1.75.784 1.75 1.75v6c0 .967-.783 1.75-1.75 1.75h-6c-.966 0-1.75-.783-1.75-1.75V31.5H21.75c-.966 0-1.75-.784-1.75-1.75v-6c0-.966.784-1.75 1.75-1.75h6zm2.913 4.148l-4.566-.001-1.439.012c-.115 0-.211.08-.24.185-.003.018-.005.035-.005.054v6c0 .138.112.25.25.25h6c.138 0 .25-.112.25-.25v-6c0-.138-.112-.25-.25-.25zm-5.251-10.17c.506 0 .906.427.873.932l-.108 1.67c-.032.482-.448.848-.93.816-.483-.031-.848-.447-.817-.93l.048-.738H13.817l.665 12.478h2.821c.484 0 .875.392.875.875s-.391.875-.875.875h-3.65c-.465 0-.85-.364-.874-.828L12.02 16.9c-.027-.501.372-.922.874-.922zM27.75 23.5h-6c-.138 0-.25.112-.25.25v6c0 .138.112.25.25.25h1.16v-3.591c0-.177.027-.348.075-.51.215-.723.885-1.251 1.678-1.251l1.402-.001L28 24.633v-.883c0-.138-.112-.25-.25-.25zm-1.824-9.79c.442 0 .801.357.801.8 0 .441-.359.8-.801.8H11.8c-.442 0-.8-.359-.8-.8 0-.443.358-.8.8-.8h14.126zm-3.904-2.233c.442 0 .8.358.8.8 0 .442-.358.8-.8.8h-6.223c-.442 0-.799-.358-.799-.8 0-.442.357-.8.799-.8h6.223z" transform="translate(-687 -704) translate(643 704) translate(44)"/>
                </g>
            </g>
        </g>
    </g>
</svg>
